<?xml version="1.0" encoding="UTF-8" standalone="no"?>
<!DOCTYPE svg PUBLIC "-//W3C//DTD SVG 1.1//EN"
 "http://www.w3.org/Graphics/SVG/1.1/DTD/svg11.dtd">
<!-- Generated by graphviz version 2.42.4 (0)
 -->
<!-- Title: nexus_graph Pages: 1 -->
<svg width="1954pt" height="779pt"
 viewBox="0.00 0.00 1953.60 779.00" xmlns="http://www.w3.org/2000/svg" xmlns:xlink="http://www.w3.org/1999/xlink">
<g id="graph0" class="graph" transform="scale(1 1) rotate(0) translate(4 775)">
<title>nexus_graph</title>
<polygon fill="white" stroke="transparent" points="-4,4 -4,-775 1949.6,-775 1949.6,4 -4,4"/>
<!-- 019d174e&#45;e953&#45;7e8b&#45;b506&#45;5f1475399fc7 -->
<g id="node1" class="node">
<title>019d174e&#45;e953&#45;7e8b&#45;b506&#45;5f1475399fc7</title>
<path fill="#ede9fe" stroke="#4b5563" d="M1021,-530.48C1021,-533.11 988.95,-535.25 949.5,-535.25 910.05,-535.25 878,-533.11 878,-530.48 878,-530.48 878,-487.52 878,-487.52 878,-484.89 910.05,-482.75 949.5,-482.75 988.95,-482.75 1021,-484.89 1021,-487.52 1021,-487.52 1021,-530.48 1021,-530.48"/>
<path fill="none" stroke="#4b5563" d="M1021,-530.48C1021,-527.84 988.95,-525.7 949.5,-525.7 910.05,-525.7 878,-527.84 878,-530.48"/>
<text text-anchor="middle" x="949.5" y="-512.8" font-family="Helvetica,sans-Serif" font-size="14.00">import_node</text>
<text text-anchor="middle" x="949.5" y="-497.8" font-family="Helvetica,sans-Serif" font-size="14.00">kind: import_node</text>
</g>
<!-- a380b437&#45;4aac&#45;5494&#45;986a&#45;5ac2c5c1bb93 -->
<g id="node8" class="node">
<title>a380b437&#45;4aac&#45;5494&#45;986a&#45;5ac2c5c1bb93</title>
<ellipse fill="#fee2e2" stroke="#4b5563" cx="1840.24" cy="-382" rx="105.22" ry="26.74"/>
<text text-anchor="middle" x="1840.24" y="-385.8" font-family="Helvetica,sans-Serif" font-size="14.00">ingestion</text>
<text text-anchor="middle" x="1840.24" y="-370.8" font-family="Helvetica,sans-Serif" font-size="14.00">kind: domain_node</text>
</g>
<!-- 019d174e&#45;e953&#45;7e8b&#45;b506&#45;5f1475399fc7&#45;&gt;a380b437&#45;4aac&#45;5494&#45;986a&#45;5ac2c5c1bb93 -->
<g id="edge2" class="edge">
<title>019d174e&#45;e953&#45;7e8b&#45;b506&#45;5f1475399fc7&#45;&gt;a380b437&#45;4aac&#45;5494&#45;986a&#45;5ac2c5c1bb93</title>
<path fill="none" stroke="#6b7280" d="M1021.14,-511.1C1080.88,-512.2 1168.68,-512.23 1245,-506 1457.24,-488.68 1511.77,-480.23 1716.88,-423 1733.75,-418.29 1751.72,-412.64 1768.56,-407.06"/>
<polygon fill="#6b7280" stroke="#6b7280" points="1769.95,-410.28 1778.32,-403.78 1767.72,-403.64 1769.95,-410.28"/>
<text text-anchor="middle" x="1416.44" y="-507.8" font-family="Helvetica,sans-Serif" font-size="14.00">located_in_domain</text>
</g>
<!-- dea43c92&#45;7af5&#45;5562&#45;a828&#45;d6a200b66af4 -->
<g id="node9" class="node">
<title>dea43c92&#45;7af5&#45;5562&#45;a828&#45;d6a200b66af4</title>
<ellipse fill="#e0f2fe" stroke="#4b5563" cx="1416.44" cy="-420" rx="153.38" ry="26.74"/>
<text text-anchor="middle" x="1416.44" y="-423.8" font-family="Helvetica,sans-Serif" font-size="14.00">canonical&#45;history</text>
<text text-anchor="middle" x="1416.44" y="-408.8" font-family="Helvetica,sans-Serif" font-size="14.00">kind: bounded_context_node</text>
</g>
<!-- 019d174e&#45;e953&#45;7e8b&#45;b506&#45;5f1475399fc7&#45;&gt;dea43c92&#45;7af5&#45;5562&#45;a828&#45;d6a200b66af4 -->
<g id="edge1" class="edge">
<title>019d174e&#45;e953&#45;7e8b&#45;b506&#45;5f1475399fc7&#45;&gt;dea43c92&#45;7af5&#45;5562&#45;a828&#45;d6a200b66af4</title>
<path fill="none" stroke="#6b7280" d="M1021.11,-495.48C1095.72,-481.2 1214.48,-458.47 1302.19,-441.68"/>
<polygon fill="#6b7280" stroke="#6b7280" points="1303.03,-445.08 1312.19,-439.76 1301.71,-438.21 1303.03,-445.08"/>
<text text-anchor="middle" x="1152.5" y="-490.8" font-family="Helvetica,sans-Serif" font-size="14.00">interpreted_within_context</text>
</g>
<!-- 019d174e&#45;e960&#45;7507&#45;8aa6&#45;06ee0064e499 -->
<g id="node2" class="node">
<title>019d174e&#45;e960&#45;7507&#45;8aa6&#45;06ee0064e499</title>
<path fill="#dbeafe" stroke="#4b5563" d="M624,-346C624,-346 379,-346 379,-346 373,-346 367,-340 367,-334 367,-334 367,-320 367,-320 367,-314 373,-308 379,-308 379,-308 624,-308 624,-308 630,-308 636,-314 636,-320 636,-320 636,-334 636,-334 636,-340 630,-346 624,-346"/>
<text text-anchor="middle" x="501.5" y="-330.8" font-family="Helvetica,sans-Serif" font-size="14.00">Mermaid sequence diagram for chat</text>
<text text-anchor="middle" x="501.5" y="-315.8" font-family="Helvetica,sans-Serif" font-size="14.00">kind: conversation_node</text>
</g>
<!-- 019d174e&#45;e960&#45;7507&#45;8aa6&#45;06ee0064e499&#45;&gt;019d174e&#45;e953&#45;7e8b&#45;b506&#45;5f1475399fc7 -->
<g id="edge5" class="edge">
<title>019d174e&#45;e960&#45;7507&#45;8aa6&#45;06ee0064e499&#45;&gt;019d174e&#45;e953&#45;7e8b&#45;b506&#45;5f1475399fc7</title>
<path fill="none" stroke="#6b7280" d="M617.53,-346.01C624.26,-349.9 630.51,-354.52 636,-360 659.35,-383.29 630.78,-408.57 654,-432 713.8,-492.33 756.83,-458.46 839,-480 848.42,-482.47 858.29,-485.07 868.08,-487.65"/>
<polygon fill="#6b7280" stroke="#6b7280" points="867.27,-491.06 877.83,-490.23 869.06,-484.29 867.27,-491.06"/>
<text text-anchor="middle" x="746.5" y="-483.8" font-family="Helvetica,sans-Serif" font-size="14.00">observed_during_import</text>
</g>
<!-- 019d19f8&#45;e74f&#45;76b6&#45;a66c&#45;a035a7cda06c -->
<g id="node7" class="node">
<title>019d19f8&#45;e74f&#45;76b6&#45;a66c&#45;a035a7cda06c</title>
<path fill="#ede9fe" stroke="#4b5563" d="M1021,-379.48C1021,-382.11 988.95,-384.25 949.5,-384.25 910.05,-384.25 878,-382.11 878,-379.48 878,-379.48 878,-336.52 878,-336.52 878,-333.89 910.05,-331.75 949.5,-331.75 988.95,-331.75 1021,-333.89 1021,-336.52 1021,-336.52 1021,-379.48 1021,-379.48"/>
<path fill="none" stroke="#4b5563" d="M1021,-379.48C1021,-376.84 988.95,-374.7 949.5,-374.7 910.05,-374.7 878,-376.84 878,-379.48"/>
<text text-anchor="middle" x="949.5" y="-361.8" font-family="Helvetica,sans-Serif" font-size="14.00">import_node</text>
<text text-anchor="middle" x="949.5" y="-346.8" font-family="Helvetica,sans-Serif" font-size="14.00">kind: import_node</text>
</g>
<!-- 019d174e&#45;e960&#45;7507&#45;8aa6&#45;06ee0064e499&#45;&gt;019d19f8&#45;e74f&#45;76b6&#45;a66c&#45;a035a7cda06c -->
<g id="edge6" class="edge">
<title>019d174e&#45;e960&#45;7507&#45;8aa6&#45;06ee0064e499&#45;&gt;019d19f8&#45;e74f&#45;76b6&#45;a66c&#45;a035a7cda06c</title>
<path fill="none" stroke="#6b7280" d="M636.01,-336.28C711.41,-341.52 803.16,-347.9 867.68,-352.38"/>
<polygon fill="#6b7280" stroke="#6b7280" points="867.58,-355.88 877.8,-353.09 868.06,-348.9 867.58,-355.88"/>
<text text-anchor="middle" x="746.5" y="-352.8" font-family="Helvetica,sans-Serif" font-size="14.00">observed_during_import</text>
</g>
<!-- 019d174e&#45;e960&#45;7507&#45;8aa6&#45;06ee0064e499&#45;&gt;a380b437&#45;4aac&#45;5494&#45;986a&#45;5ac2c5c1bb93 -->
<g id="edge4" class="edge">
<title>019d174e&#45;e960&#45;7507&#45;8aa6&#45;06ee0064e499&#45;&gt;a380b437&#45;4aac&#45;5494&#45;986a&#45;5ac2c5c1bb93</title>
<path fill="none" stroke="#6b7280" d="M636.32,-325.13C702.69,-324.3 784.07,-323.41 857,-323 1239.62,-320.84 1336.17,-326.76 1716.88,-365 1724,-365.71 1731.34,-366.53 1738.72,-367.41"/>
<polygon fill="#6b7280" stroke="#6b7280" points="1738.44,-370.9 1748.79,-368.65 1739.3,-363.96 1738.44,-370.9"/>
<text text-anchor="middle" x="1152.5" y="-329.8" font-family="Helvetica,sans-Serif" font-size="14.00">located_in_domain</text>
</g>
<!-- 019d174e&#45;e960&#45;7507&#45;8aa6&#45;06ee0064e499&#45;&gt;dea43c92&#45;7af5&#45;5562&#45;a828&#45;d6a200b66af4 -->
<g id="edge3" class="edge">
<title>019d174e&#45;e960&#45;7507&#45;8aa6&#45;06ee0064e499&#45;&gt;dea43c92&#45;7af5&#45;5562&#45;a828&#45;d6a200b66af4</title>
<path fill="none" stroke="#6b7280" d="M588.97,-346.01C604.76,-350.15 620.98,-354.85 636,-360 644.28,-362.84 645.56,-365.66 654,-368 857.35,-424.36 1102.37,-430.72 1258.52,-427.48"/>
<polygon fill="#6b7280" stroke="#6b7280" points="1258.75,-430.98 1268.67,-427.26 1258.6,-423.98 1258.75,-430.98"/>
<text text-anchor="middle" x="949.5" y="-427.8" font-family="Helvetica,sans-Serif" font-size="14.00">interpreted_within_context</text>
</g>
<!-- 019d174e&#45;e994&#45;7589&#45;a095&#45;0d1b89d7194f -->
<g id="node3" class="node">
<title>019d174e&#45;e994&#45;7589&#45;a095&#45;0d1b89d7194f</title>
<polygon fill="#fef3c7" stroke="#4b5563" points="153,-282 0,-282 0,-214 159,-214 159,-276 153,-282"/>
<polyline fill="none" stroke="#4b5563" points="153,-282 153,-276 "/>
<polyline fill="none" stroke="#4b5563" points="159,-276 153,-276 "/>
<text text-anchor="middle" x="79.5" y="-266.8" font-family="Helvetica,sans-Serif" font-size="14.00">message_node</text>
<text text-anchor="middle" x="79.5" y="-251.8" font-family="Helvetica,sans-Serif" font-size="14.00">kind: message_node</text>
<text text-anchor="middle" x="79.5" y="-236.8" font-family="Helvetica,sans-Serif" font-size="14.00">semantic: imprint</text>
<text text-anchor="middle" x="79.5" y="-221.8" font-family="Helvetica,sans-Serif" font-size="14.00">message: assistant</text>
</g>
<!-- 019d174e&#45;e994&#45;7589&#45;a095&#45;0d1b89d7194f&#45;&gt;019d174e&#45;e953&#45;7e8b&#45;b506&#45;5f1475399fc7 -->
<g id="edge10" class="edge">
<title>019d174e&#45;e994&#45;7589&#45;a095&#45;0d1b89d7194f&#45;&gt;019d174e&#45;e953&#45;7e8b&#45;b506&#45;5f1475399fc7</title>
<path fill="none" stroke="#6b7280" d="M122.04,-282.27C138.32,-294.21 157.71,-306.68 177,-315 256.24,-349.18 281.82,-341.16 367,-355 426.39,-364.65 592.42,-344.5 636,-386 671.56,-419.86 617.32,-462.35 654,-495 684.51,-522.16 791.42,-520.89 867.63,-516.09"/>
<polygon fill="#6b7280" stroke="#6b7280" points="867.95,-519.58 877.7,-515.43 867.49,-512.6 867.95,-519.58"/>
<text text-anchor="middle" x="501.5" y="-389.8" font-family="Helvetica,sans-Serif" font-size="14.00">observed_during_import</text>
</g>
<!-- 019d174e&#45;e994&#45;7589&#45;a095&#45;0d1b89d7194f&#45;&gt;019d174e&#45;e960&#45;7507&#45;8aa6&#45;06ee0064e499 -->
<g id="edge7" class="edge">
<title>019d174e&#45;e994&#45;7589&#45;a095&#45;0d1b89d7194f&#45;&gt;019d174e&#45;e960&#45;7507&#45;8aa6&#45;06ee0064e499</title>
<path fill="none" stroke="#6b7280" d="M159.01,-262.77C223.86,-274.97 316.71,-292.43 389.23,-306.07"/>
<polygon fill="#6b7280" stroke="#6b7280" points="388.85,-309.56 399.32,-307.97 390.14,-302.68 388.85,-309.56"/>
<text text-anchor="middle" x="263" y="-299.8" font-family="Helvetica,sans-Serif" font-size="14.00">belongs_to_conversation</text>
</g>
<!-- 019d174e&#45;e994&#45;7589&#45;a095&#45;0d1b89d7194f&#45;&gt;019d19f8&#45;e74f&#45;76b6&#45;a66c&#45;a035a7cda06c -->
<g id="edge11" class="edge">
<title>019d174e&#45;e994&#45;7589&#45;a095&#45;0d1b89d7194f&#45;&gt;019d19f8&#45;e74f&#45;76b6&#45;a66c&#45;a035a7cda06c</title>
<path fill="none" stroke="#6b7280" d="M159.05,-236.78C267.41,-223.52 468.37,-206.92 636,-238 728.26,-255.11 828.45,-298.37 889.87,-327.99"/>
<polygon fill="#6b7280" stroke="#6b7280" points="888.49,-331.21 899.02,-332.44 891.56,-324.92 888.49,-331.21"/>
<text text-anchor="middle" x="501.5" y="-241.8" font-family="Helvetica,sans-Serif" font-size="14.00">observed_during_import</text>
</g>
<!-- 019d174e&#45;e994&#45;7589&#45;a095&#45;0d1b89d7194f&#45;&gt;a380b437&#45;4aac&#45;5494&#45;986a&#45;5ac2c5c1bb93 -->
<g id="edge9" class="edge">
<title>019d174e&#45;e994&#45;7589&#45;a095&#45;0d1b89d7194f&#45;&gt;a380b437&#45;4aac&#45;5494&#45;986a&#45;5ac2c5c1bb93</title>
<path fill="none" stroke="#6b7280" d="M113.85,-213.88C131.26,-197.95 153.75,-180.1 177,-169 409.88,-57.84 487.45,-51 745.5,-51 745.5,-51 745.5,-51 1417.44,-51 1607.59,-51 1762.85,-261.75 1817.83,-346.92"/>
<polygon fill="#6b7280" stroke="#6b7280" points="1814.96,-348.92 1823.28,-355.47 1820.86,-345.16 1814.96,-348.92"/>
<text text-anchor="middle" x="949.5" y="-54.8" font-family="Helvetica,sans-Serif" font-size="14.00">located_in_domain</text>
</g>
<!-- 019d174e&#45;e994&#45;7589&#45;a095&#45;0d1b89d7194f&#45;&gt;dea43c92&#45;7af5&#45;5562&#45;a828&#45;d6a200b66af4 -->
<g id="edge8" class="edge">
<title>019d174e&#45;e994&#45;7589&#45;a095&#45;0d1b89d7194f&#45;&gt;dea43c92&#45;7af5&#45;5562&#45;a828&#45;d6a200b66af4</title>
<path fill="none" stroke="#6b7280" d="M159.23,-245.4C266.96,-242.46 466.3,-239.26 636,-249 907.95,-264.6 1039.49,-139.21 1245,-318 1269.24,-339.08 1239.78,-365.8 1263,-388 1267.81,-392.6 1273.1,-396.61 1278.74,-400.1"/>
<polygon fill="#6b7280" stroke="#6b7280" points="1277.43,-403.38 1287.87,-405.18 1280.83,-397.26 1277.43,-403.38"/>
<text text-anchor="middle" x="746.5" y="-253.8" font-family="Helvetica,sans-Serif" font-size="14.00">interpreted_within_context</text>
</g>
<!-- 019d174e&#45;e994&#45;75aa&#45;a8c2&#45;cb96ec3a7b48 -->
<g id="node4" class="node">
<title>019d174e&#45;e994&#45;75aa&#45;a8c2&#45;cb96ec3a7b48</title>
<polygon fill="#fef3c7" stroke="#4b5563" points="153,-635 0,-635 0,-567 159,-567 159,-629 153,-635"/>
<polyline fill="none" stroke="#4b5563" points="153,-635 153,-629 "/>
<polyline fill="none" stroke="#4b5563" points="159,-629 153,-629 "/>
<text text-anchor="middle" x="79.5" y="-619.8" font-family="Helvetica,sans-Serif" font-size="14.00">message_node</text>
<text text-anchor="middle" x="79.5" y="-604.8" font-family="Helvetica,sans-Serif" font-size="14.00">kind: message_node</text>
<text text-anchor="middle" x="79.5" y="-589.8" font-family="Helvetica,sans-Serif" font-size="14.00">semantic: imprint</text>
<text text-anchor="middle" x="79.5" y="-574.8" font-family="Helvetica,sans-Serif" font-size="14.00">message: human</text>
</g>
<!-- 019d174e&#45;e994&#45;75aa&#45;a8c2&#45;cb96ec3a7b48&#45;&gt;019d174e&#45;e953&#45;7e8b&#45;b506&#45;5f1475399fc7 -->
<g id="edge15" class="edge">
<title>019d174e&#45;e994&#45;75aa&#45;a8c2&#45;cb96ec3a7b48&#45;&gt;019d174e&#45;e953&#45;7e8b&#45;b506&#45;5f1475399fc7</title>
<path fill="none" stroke="#6b7280" d="M159.07,-598.31C297.35,-592.68 592.87,-576.64 839,-536 848.39,-534.45 858.16,-532.51 867.84,-530.4"/>
<polygon fill="#6b7280" stroke="#6b7280" points="868.87,-533.75 877.86,-528.13 867.33,-526.92 868.87,-533.75"/>
<text text-anchor="middle" x="501.5" y="-589.8" font-family="Helvetica,sans-Serif" font-size="14.00">observed_during_import</text>
</g>
<!-- 019d174e&#45;e994&#45;75aa&#45;a8c2&#45;cb96ec3a7b48&#45;&gt;019d174e&#45;e960&#45;7507&#45;8aa6&#45;06ee0064e499 -->
<g id="edge12" class="edge">
<title>019d174e&#45;e994&#45;75aa&#45;a8c2&#45;cb96ec3a7b48&#45;&gt;019d174e&#45;e960&#45;7507&#45;8aa6&#45;06ee0064e499</title>
<path fill="none" stroke="#6b7280" d="M118.63,-566.95C135.87,-552.32 156.86,-535.51 177,-522 249.17,-473.59 295.37,-497.38 349,-429 368.56,-404.06 344.45,-382.27 367,-360 370.11,-356.93 373.45,-354.14 376.98,-351.59"/>
<polygon fill="#6b7280" stroke="#6b7280" points="379.02,-354.43 385.53,-346.07 375.23,-348.55 379.02,-354.43"/>
<text text-anchor="middle" x="263" y="-525.8" font-family="Helvetica,sans-Serif" font-size="14.00">belongs_to_conversation</text>
</g>
<!-- 019d174e&#45;e994&#45;75aa&#45;a8c2&#45;cb96ec3a7b48&#45;&gt;019d19f8&#45;e74f&#45;76b6&#45;a66c&#45;a035a7cda06c -->
<g id="edge16" class="edge">
<title>019d174e&#45;e994&#45;75aa&#45;a8c2&#45;cb96ec3a7b48&#45;&gt;019d19f8&#45;e74f&#45;76b6&#45;a66c&#45;a035a7cda06c</title>
<path fill="none" stroke="#6b7280" d="M159.13,-586.26C233.17,-571.75 334.81,-549.93 349,-537 367.39,-520.25 346.99,-498.79 367,-484 451.39,-421.63 756.56,-534.92 839,-470 862.89,-451.19 837.75,-427.53 857,-404 861.91,-398 867.8,-392.71 874.19,-388.06"/>
<polygon fill="#6b7280" stroke="#6b7280" points="876.14,-390.97 882.53,-382.51 872.26,-385.14 876.14,-390.97"/>
<text text-anchor="middle" x="501.5" y="-487.8" font-family="Helvetica,sans-Serif" font-size="14.00">observed_during_import</text>
</g>
<!-- 019d174e&#45;e994&#45;75aa&#45;a8c2&#45;cb96ec3a7b48&#45;&gt;a380b437&#45;4aac&#45;5494&#45;986a&#45;5ac2c5c1bb93 -->
<g id="edge14" class="edge">
<title>019d174e&#45;e994&#45;75aa&#45;a8c2&#45;cb96ec3a7b48&#45;&gt;a380b437&#45;4aac&#45;5494&#45;986a&#45;5ac2c5c1bb93</title>
<path fill="none" stroke="#6b7280" d="M134.53,-635.02C212.3,-680.64 361.76,-756 500.5,-756 500.5,-756 500.5,-756 1417.44,-756 1564.35,-756 1619.93,-726.38 1716.88,-616 1770.09,-555.42 1807.95,-467.63 1826.43,-418.61"/>
<polygon fill="#6b7280" stroke="#6b7280" points="1829.78,-419.65 1829.97,-409.05 1823.21,-417.21 1829.78,-419.65"/>
<text text-anchor="middle" x="949.5" y="-759.8" font-family="Helvetica,sans-Serif" font-size="14.00">located_in_domain</text>
</g>
<!-- 019d174e&#45;e994&#45;75aa&#45;a8c2&#45;cb96ec3a7b48&#45;&gt;dea43c92&#45;7af5&#45;5562&#45;a828&#45;d6a200b66af4 -->
<g id="edge13" class="edge">
<title>019d174e&#45;e994&#45;75aa&#45;a8c2&#45;cb96ec3a7b48&#45;&gt;dea43c92&#45;7af5&#45;5562&#45;a828&#45;d6a200b66af4</title>
<path fill="none" stroke="#6b7280" d="M159.16,-609.1C216.68,-614.79 296.62,-622.21 367,-627 562.28,-640.28 1113.04,-701.56 1245,-557 1275.45,-523.65 1232.04,-489.88 1263,-457 1268.97,-450.66 1275.83,-445.32 1283.26,-440.84"/>
<polygon fill="#6b7280" stroke="#6b7280" points="1285.12,-443.82 1292.23,-435.97 1281.77,-437.67 1285.12,-443.82"/>
<text text-anchor="middle" x="746.5" y="-654.8" font-family="Helvetica,sans-Serif" font-size="14.00">interpreted_within_context</text>
</g>
<!-- 019d174e&#45;e994&#45;7a37&#45;950d&#45;6fb67883c245 -->
<g id="node5" class="node">
<title>019d174e&#45;e994&#45;7a37&#45;950d&#45;6fb67883c245</title>
<polygon fill="#fef3c7" stroke="#4b5563" points="153,-522 0,-522 0,-454 159,-454 159,-516 153,-522"/>
<polyline fill="none" stroke="#4b5563" points="153,-522 153,-516 "/>
<polyline fill="none" stroke="#4b5563" points="159,-516 153,-516 "/>
<text text-anchor="middle" x="79.5" y="-506.8" font-family="Helvetica,sans-Serif" font-size="14.00">message_node</text>
<text text-anchor="middle" x="79.5" y="-491.8" font-family="Helvetica,sans-Serif" font-size="14.00">kind: message_node</text>
<text text-anchor="middle" x="79.5" y="-476.8" font-family="Helvetica,sans-Serif" font-size="14.00">semantic: imprint</text>
<text text-anchor="middle" x="79.5" y="-461.8" font-family="Helvetica,sans-Serif" font-size="14.00">message: human</text>
</g>
<!-- 019d174e&#45;e994&#45;7a37&#45;950d&#45;6fb67883c245&#45;&gt;019d174e&#45;e953&#45;7e8b&#45;b506&#45;5f1475399fc7 -->
<g id="edge20" class="edge">
<title>019d174e&#45;e994&#45;7a37&#45;950d&#45;6fb67883c245&#45;&gt;019d174e&#45;e953&#45;7e8b&#45;b506&#45;5f1475399fc7</title>
<path fill="none" stroke="#6b7280" d="M159.23,-491.89C212.75,-494.59 285.16,-498.35 349,-502 566.59,-514.45 621.38,-532.89 839,-521 848.35,-520.49 858.14,-519.73 867.84,-518.85"/>
<polygon fill="#6b7280" stroke="#6b7280" points="868.29,-522.32 877.91,-517.88 867.62,-515.35 868.29,-522.32"/>
<text text-anchor="middle" x="501.5" y="-526.8" font-family="Helvetica,sans-Serif" font-size="14.00">observed_during_import</text>
</g>
<!-- 019d174e&#45;e994&#45;7a37&#45;950d&#45;6fb67883c245&#45;&gt;019d174e&#45;e960&#45;7507&#45;8aa6&#45;06ee0064e499 -->
<g id="edge17" class="edge">
<title>019d174e&#45;e994&#45;7a37&#45;950d&#45;6fb67883c245&#45;&gt;019d174e&#45;e960&#45;7507&#45;8aa6&#45;06ee0064e499</title>
<path fill="none" stroke="#6b7280" d="M115.51,-453.66C132.8,-438.36 154.7,-421.28 177,-410 235.44,-380.42 305.29,-360.79 365.11,-348.08"/>
<polygon fill="#6b7280" stroke="#6b7280" points="365.92,-351.48 375,-346.02 364.5,-344.63 365.92,-351.48"/>
<text text-anchor="middle" x="263" y="-413.8" font-family="Helvetica,sans-Serif" font-size="14.00">belongs_to_conversation</text>
</g>
<!-- 019d174e&#45;e994&#45;7a37&#45;950d&#45;6fb67883c245&#45;&gt;019d19f8&#45;e74f&#45;76b6&#45;a66c&#45;a035a7cda06c -->
<g id="edge21" class="edge">
<title>019d174e&#45;e994&#45;7a37&#45;950d&#45;6fb67883c245&#45;&gt;019d19f8&#45;e74f&#45;76b6&#45;a66c&#45;a035a7cda06c</title>
<path fill="none" stroke="#6b7280" d="M159.06,-476.23C323.28,-451.64 701.4,-395.01 867.61,-370.11"/>
<polygon fill="#6b7280" stroke="#6b7280" points="868.4,-373.54 877.77,-368.59 867.36,-366.61 868.4,-373.54"/>
<text text-anchor="middle" x="501.5" y="-447.8" font-family="Helvetica,sans-Serif" font-size="14.00">observed_during_import</text>
</g>
<!-- 019d174e&#45;e994&#45;7a37&#45;950d&#45;6fb67883c245&#45;&gt;a380b437&#45;4aac&#45;5494&#45;986a&#45;5ac2c5c1bb93 -->
<g id="edge19" class="edge">
<title>019d174e&#45;e994&#45;7a37&#45;950d&#45;6fb67883c245&#45;&gt;a380b437&#45;4aac&#45;5494&#45;986a&#45;5ac2c5c1bb93</title>
<path fill="none" stroke="#6b7280" d="M122.71,-522.12C135.03,-532.99 148.1,-545.46 159,-558 168.46,-568.89 165.1,-576.85 177,-585 223.64,-616.92 591.29,-705 745.5,-705 745.5,-705 745.5,-705 1417.44,-705 1605.18,-705 1761.03,-500.8 1817.02,-417.12"/>
<polygon fill="#6b7280" stroke="#6b7280" points="1819.99,-418.98 1822.59,-408.71 1814.15,-415.12 1819.99,-418.98"/>
<text text-anchor="middle" x="949.5" y="-708.8" font-family="Helvetica,sans-Serif" font-size="14.00">located_in_domain</text>
</g>
<!-- 019d174e&#45;e994&#45;7a37&#45;950d&#45;6fb67883c245&#45;&gt;dea43c92&#45;7af5&#45;5562&#45;a828&#45;d6a200b66af4 -->
<g id="edge18" class="edge">
<title>019d174e&#45;e994&#45;7a37&#45;950d&#45;6fb67883c245&#45;&gt;dea43c92&#45;7af5&#45;5562&#45;a828&#45;d6a200b66af4</title>
<path fill="none" stroke="#6b7280" d="M138.61,-522.07C151.07,-528.77 164.31,-535.43 177,-541 258.59,-576.81 279.07,-590.59 367,-605 560.76,-636.76 1095.07,-632.78 1245,-506 1262.72,-491.02 1245.69,-472.44 1263,-457 1270.09,-450.68 1278.08,-445.39 1286.59,-440.97"/>
<polygon fill="#6b7280" stroke="#6b7280" points="1288.1,-444.13 1295.63,-436.68 1285.09,-437.81 1288.1,-444.13"/>
<text text-anchor="middle" x="746.5" y="-624.8" font-family="Helvetica,sans-Serif" font-size="14.00">interpreted_within_context</text>
</g>
<!-- 019d174e&#45;e994&#45;7a7b&#45;98c3&#45;16160f153d1e -->
<g id="node6" class="node">
<title>019d174e&#45;e994&#45;7a7b&#45;98c3&#45;16160f153d1e</title>
<polygon fill="#fef3c7" stroke="#4b5563" points="153,-169 0,-169 0,-101 159,-101 159,-163 153,-169"/>
<polyline fill="none" stroke="#4b5563" points="153,-169 153,-163 "/>
<polyline fill="none" stroke="#4b5563" points="159,-163 153,-163 "/>
<text text-anchor="middle" x="79.5" y="-153.8" font-family="Helvetica,sans-Serif" font-size="14.00">message_node</text>
<text text-anchor="middle" x="79.5" y="-138.8" font-family="Helvetica,sans-Serif" font-size="14.00">kind: message_node</text>
<text text-anchor="middle" x="79.5" y="-123.8" font-family="Helvetica,sans-Serif" font-size="14.00">semantic: imprint</text>
<text text-anchor="middle" x="79.5" y="-108.8" font-family="Helvetica,sans-Serif" font-size="14.00">message: assistant</text>
</g>
<!-- 019d174e&#45;e994&#45;7a7b&#45;98c3&#45;16160f153d1e&#45;&gt;019d174e&#45;e953&#45;7e8b&#45;b506&#45;5f1475399fc7 -->
<g id="edge25" class="edge">
<title>019d174e&#45;e994&#45;7a7b&#45;98c3&#45;16160f153d1e&#45;&gt;019d174e&#45;e953&#45;7e8b&#45;b506&#45;5f1475399fc7</title>
<path fill="none" stroke="#6b7280" d="M159.33,-144.25C236.01,-153.59 341.98,-167.52 349,-174 375.46,-198.43 340.18,-228.97 367,-253 411.81,-293.16 576.75,-273.48 636,-284 727.38,-300.23 775.87,-264.97 839,-333 872.7,-369.31 830.94,-400.87 857,-443 865.28,-456.39 877.39,-467.88 890.1,-477.34"/>
<polygon fill="#6b7280" stroke="#6b7280" points="888.31,-480.36 898.5,-483.26 892.34,-474.64 888.31,-480.36"/>
<text text-anchor="middle" x="501.5" y="-287.8" font-family="Helvetica,sans-Serif" font-size="14.00">observed_during_import</text>
</g>
<!-- 019d174e&#45;e994&#45;7a7b&#45;98c3&#45;16160f153d1e&#45;&gt;019d174e&#45;e960&#45;7507&#45;8aa6&#45;06ee0064e499 -->
<g id="edge22" class="edge">
<title>019d174e&#45;e994&#45;7a7b&#45;98c3&#45;16160f153d1e&#45;&gt;019d174e&#45;e960&#45;7507&#45;8aa6&#45;06ee0064e499</title>
<path fill="none" stroke="#6b7280" d="M159.15,-164.51C233.21,-192.87 334.86,-233.49 349,-248 364.33,-263.72 350.5,-279.52 367,-294 370.68,-297.23 374.62,-300.15 378.76,-302.79"/>
<polygon fill="#6b7280" stroke="#6b7280" points="377.11,-305.88 387.53,-307.84 380.61,-299.81 377.11,-305.88"/>
<text text-anchor="middle" x="263" y="-251.8" font-family="Helvetica,sans-Serif" font-size="14.00">belongs_to_conversation</text>
</g>
<!-- 019d174e&#45;e994&#45;7a7b&#45;98c3&#45;16160f153d1e&#45;&gt;019d19f8&#45;e74f&#45;76b6&#45;a66c&#45;a035a7cda06c -->
<g id="edge26" class="edge">
<title>019d174e&#45;e994&#45;7a7b&#45;98c3&#45;16160f153d1e&#45;&gt;019d19f8&#45;e74f&#45;76b6&#45;a66c&#45;a035a7cda06c</title>
<path fill="none" stroke="#6b7280" d="M159.14,-136.47C212.78,-138.12 285.36,-141.61 349,-149 403.99,-155.39 790.58,-212.17 839,-239 875.45,-259.2 906.45,-295.98 926.06,-323.33"/>
<polygon fill="#6b7280" stroke="#6b7280" points="923.41,-325.65 932.02,-331.84 929.15,-321.64 923.41,-325.65"/>
<text text-anchor="middle" x="501.5" y="-195.8" font-family="Helvetica,sans-Serif" font-size="14.00">observed_during_import</text>
</g>
<!-- 019d174e&#45;e994&#45;7a7b&#45;98c3&#45;16160f153d1e&#45;&gt;a380b437&#45;4aac&#45;5494&#45;986a&#45;5ac2c5c1bb93 -->
<g id="edge24" class="edge">
<title>019d174e&#45;e994&#45;7a7b&#45;98c3&#45;16160f153d1e&#45;&gt;a380b437&#45;4aac&#45;5494&#45;986a&#45;5ac2c5c1bb93</title>
<path fill="none" stroke="#6b7280" d="M143.93,-100.93C224.45,-60.94 368.76,0 500.5,0 500.5,0 500.5,0 1417.44,0 1558.18,0 1617.8,-3.05 1716.88,-103 1785.56,-172.27 1818.79,-286.54 1832,-345.01"/>
<polygon fill="#6b7280" stroke="#6b7280" points="1828.61,-345.9 1834.17,-354.92 1835.45,-344.4 1828.61,-345.9"/>
<text text-anchor="middle" x="949.5" y="-3.8" font-family="Helvetica,sans-Serif" font-size="14.00">located_in_domain</text>
</g>
<!-- 019d174e&#45;e994&#45;7a7b&#45;98c3&#45;16160f153d1e&#45;&gt;dea43c92&#45;7af5&#45;5562&#45;a828&#45;d6a200b66af4 -->
<g id="edge23" class="edge">
<title>019d174e&#45;e994&#45;7a7b&#45;98c3&#45;16160f153d1e&#45;&gt;dea43c92&#45;7af5&#45;5562&#45;a828&#45;d6a200b66af4</title>
<path fill="none" stroke="#6b7280" d="M159.33,-128.05C396.15,-109.05 1094.2,-67.29 1245,-220 1297.76,-273.43 1212.63,-332.31 1263,-388 1267.18,-392.63 1271.85,-396.68 1276.88,-400.22"/>
<polygon fill="#6b7280" stroke="#6b7280" points="1275.33,-403.38 1285.66,-405.72 1279.04,-397.45 1275.33,-403.38"/>
<text text-anchor="middle" x="746.5" y="-117.8" font-family="Helvetica,sans-Serif" font-size="14.00">interpreted_within_context</text>
</g>
<!-- 019d19f8&#45;e74f&#45;76b6&#45;a66c&#45;a035a7cda06c&#45;&gt;a380b437&#45;4aac&#45;5494&#45;986a&#45;5ac2c5c1bb93 -->
<g id="edge28" class="edge">
<title>019d19f8&#45;e74f&#45;76b6&#45;a66c&#45;a035a7cda06c&#45;&gt;a380b437&#45;4aac&#45;5494&#45;986a&#45;5ac2c5c1bb93</title>
<path fill="none" stroke="#6b7280" d="M1021.11,-358.55C1136.12,-359.62 1371.03,-362.44 1569.88,-369 1621.43,-370.7 1678.5,-373.35 1726.78,-375.81"/>
<polygon fill="#6b7280" stroke="#6b7280" points="1726.78,-379.31 1736.95,-376.33 1727.14,-372.32 1726.78,-379.31"/>
<text text-anchor="middle" x="1416.44" y="-372.8" font-family="Helvetica,sans-Serif" font-size="14.00">located_in_domain</text>
</g>
<!-- 019d19f8&#45;e74f&#45;76b6&#45;a66c&#45;a035a7cda06c&#45;&gt;dea43c92&#45;7af5&#45;5562&#45;a828&#45;d6a200b66af4 -->
<g id="edge27" class="edge">
<title>019d19f8&#45;e74f&#45;76b6&#45;a66c&#45;a035a7cda06c&#45;&gt;dea43c92&#45;7af5&#45;5562&#45;a828&#45;d6a200b66af4</title>
<path fill="none" stroke="#6b7280" d="M1021.13,-365.19C1080.87,-371.51 1168.67,-381.33 1245,-392 1261.51,-394.31 1278.89,-396.93 1295.97,-399.63"/>
<polygon fill="#6b7280" stroke="#6b7280" points="1295.57,-403.11 1305.99,-401.22 1296.67,-396.2 1295.57,-403.11"/>
<text text-anchor="middle" x="1152.5" y="-395.8" font-family="Helvetica,sans-Serif" font-size="14.00">interpreted_within_context</text>
</g>
<!-- dea43c92&#45;7af5&#45;5562&#45;a828&#45;d6a200b66af4&#45;&gt;a380b437&#45;4aac&#45;5494&#45;986a&#45;5ac2c5c1bb93 -->
<g id="edge29" class="edge">
<title>dea43c92&#45;7af5&#45;5562&#45;a828&#45;d6a200b66af4&#45;&gt;a380b437&#45;4aac&#45;5494&#45;986a&#45;5ac2c5c1bb93</title>
<path fill="none" stroke="#6b7280" d="M1553.22,-407.77C1610.47,-402.61 1676.2,-396.69 1730.21,-391.82"/>
<polygon fill="#6b7280" stroke="#6b7280" points="1730.85,-395.28 1740.5,-390.9 1730.22,-388.31 1730.85,-395.28"/>
<text text-anchor="middle" x="1652.38" y="-407.8" font-family="Helvetica,sans-Serif" font-size="14.00">located_in_domain</text>
</g>
</g>
</svg>
